<?xml version="1.0" encoding="utf-8"?>
<!-- Generator: Adobe Illustrator 24.0.1, SVG Export Plug-In . SVG Version: 6.00 Build 0)  -->
<svg version="1.1" id="Layer_3" xmlns="http://www.w3.org/2000/svg" xmlns:xlink="http://www.w3.org/1999/xlink" x="0px" y="0px"
	 viewBox="0 0 1336.7 2251.6" style="enable-background:new 0 0 1336.7 2251.6;" xml:space="preserve">
<style type="text/css">
	.st0{fill:#EDE7E1;}
	.st1{fill:#FFD0B2;}
	.st2{fill:#FFC29C;}
	.st3{fill:#A6BABD;}
	.st4{fill:#FFBF3D;}
	.st5{fill:#FFDE3D;}
	.st6{fill:#FF2453;}
	.st7{fill:#8C3E14;}
	.st8{fill:#524339;}
	.st9{fill:#DB1F47;}
	.st10{fill:#B81A3B;}
	.st11{fill:#FFF6DE;}
	.st12{fill:#276280;}
	.st13{fill:#5A95C4;}
	.st14{fill:#225670;}
	.st15{fill:#2D7396;}
	.st16{fill:#6E9FC4;}
	.st17{fill:#538AB5;}
	.st18{fill:#558CB8;}
	.st19{fill:none;}
	.st20{fill:none;stroke:#D1EBF6;stroke-width:0.7131;stroke-miterlimit:10;}
	.st21{fill:#4E80A8;}
	.st22{fill:#85A9C4;}
	.st23{fill:#2AC9A9;}
	.st24{fill:#25B093;}
	.st25{fill:#26B597;}
	.st26{fill:#875826;}
	.st27{fill:#EBDFD3;}
	.st28{fill:#734B20;}
	.st29{fill:#607F8A;}
	.st30{fill:#472B09;}
	.st31{fill:url(#SVGID_1_);}
	.st32{fill:url(#SVGID_2_);}
	.st33{fill:#9A4331;}
	.st34{fill:#C27669;}
	.st35{fill:#94602A;}
	.st36{fill:#A36A2F;}
</style>
<g>
	<path class="st0" d="M546.1,2006.9c0,0-344.7,29.1-397.7,116c-53,86.9,290.3,207.7,735.4,57.2s648.5-328.5,205.6-339.1
		C646.4,1830.5,719.2,1990.5,546.1,2006.9z"/>
	<g>
		<g>
			<path class="st1" d="M604.1,877.8c-0.5,1.8-1.1,3.5-1.7,5.1c-5.3,15,45.1,58.4,106.1,46c50.8-10.3,76.5-31.1,75.4-69.9
				C704.9,912.2,640.6,896.4,604.1,877.8z"/>
			<path class="st2" d="M612.2,844c0,0-3.5,19-8.1,33.8c36.4,18.6,100.8,34.5,179.9-18.8c-0.2-7.8-1.5-16.3-3.8-25.6
				C780.2,833.4,698.8,857.3,612.2,844z"/>
		</g>
		<path class="st1" d="M885.8,1572.2c0,0,12.8-65.4,36.3-98.6c0,0-63.7,7.1-155.6-49.1L915,1293.2c0,0,101.3,10.2,168,63.2
			s-4.4,169.8-43.8,226.8C1039.3,1583.3,986.7,1616.9,885.8,1572.2z"/>
		<path class="st1" d="M475.1,1677.4c0,0,30.5-76.9,67.6-102.1c0,0,1.8-51.3-48.2-147.2c0,0,162.5-32.7,220.6,29.6
			c116.7,125.1-51.3,239.6-113.6,290.9C601.6,1748.6,550.3,1741.5,475.1,1677.4z"/>
		<path class="st3" d="M867,1597c0,0-1.9-19.9,8.2-45.5c10.1-25.6,17.5-6.6,64.7,14.6c47.2,21.2,89.2,15.5,105.2,6.6
			c16-8.8,15.6,16.4,6.2,47.8c-9.4,31.4-63.5,36.7-99.4,28.7C916.1,1641.2,886.9,1630.6,867,1597z"/>
		<path class="st3" d="M457.9,1674.8c0,0,4.5-19.5,23-40.3c18.5-20.8,19.8-0.2,60.4,36.1s84.8,45.3,103.7,42.5s10.5,20.9-9.2,47.3
			c-32.5,43.5-70.2,38.4-103.7,18.5C498.6,1759,467,1713.5,457.9,1674.8z"/>
		<path class="st2" d="M149.1,1222.6c1.1-0.7,2.2-1.3,3.3-1.9l-33.6-2.6c0,0,0,0,0,0l-0.1,0l-3.8-0.3l-1,0.5l-63.2,2.9
			c0,0-35.8,19.9-45.5,24.3c-9.7,4.4-7.8,23.1,25.4,19.8c0.5,6.6,3.7,17.5,19.6,19.1c5.7,0.6,13.2-2.1,21.6-6.7
			c5.2,4.8,15.4,10.8,29.4,2.3c20.9-12.7,50.4-41.6,76.6-50.4L149.1,1222.6z"/>
		<path class="st1" d="M510.6,998.2c-4.2-20.1-9.9-39.8-16.1-59.4c-2.9-9.2-5.1-19.2-8-28.9c-69.1,27.2-126.7,63.1-126.7,63.1
			c-103.2,43.6-190.4,147.4-212.8,168.6c-22.4,21.2-43,41.9-59.5,50.7c-16.5,8.8-64.8,5.3-64.8,5.3c-23.1-4-29,48.2,53.2,34.5
			c82.2-13.7,94.6,5.7,117.6,26.5c23,20.8,43.8,2.7,34-12.4c-9.7-15-12.7-33.9,9.1-55.7c21.8-21.8,87.8-48.9,139.7-71.3
			c51.9-22.4,67.8-48.9,67.8-48.9c23.5,1.7,48.1,1.3,73.2-0.5C517.1,1046,515.6,1022.2,510.6,998.2z"/>
		<path class="st1" d="M1324,823.7c-15.9,6.2-46.6,5.9-46.6,5.9c-0.6-24.2-43.6-4.7-43.6-4.7c-1.8-14.1-27.4-8.3-52.8-3.2
			c-25.3,5-41,18.4-41,18.4c-108.3,2.7-195.9,18.1-195.9,18.1c-26.5-1.9-51.8-2.3-76.4-1.9c6.4,31,8.9,62.6,9.9,94.3
			c0.4,11.4,0.2,22.9,0.1,34.3c43.7-13.3,84.2-35,140-42.2c73.4-9.4,140-42.7,140-42.7c13.6,4.7,22.1,5.6,44.2,10
			c22.1,4.4,33.3,36.6,46.6,17.7c13.3-18.9-17.7-38.3-11.5-51c6.2-12.7,29.2-1.5,64.3-15.9C1336.4,846.4,1339.9,817.5,1324,823.7z"
			/>
		<g>
			<g>
				<path class="st4" d="M458.3,2015.3l25.1-55.8l-71.3-23.4c-9.9-3.8-20.9-5.8-32.7-5.5c-48.3,1.3-91.1,40.3-95.6,87
					c-3.5,36.3,17.1,66.5,49,77.6l0,0l77.8,25.6l25.9-57.4C448.2,2049.8,456.1,2033.2,458.3,2015.3z"/>
				
					<ellipse transform="matrix(0.8028 -0.5963 0.5963 0.8028 -1128.3352 667.7286)" class="st5" cx="445.3" cy="2039.6" rx="91.5" ry="80.5"/>
				
					<ellipse transform="matrix(0.8028 -0.5962 0.5962 0.8028 -1128.3269 667.7191)" class="st6" cx="445.3" cy="2039.6" rx="43.1" ry="37.9"/>
			</g>
			<polygon class="st7" points="590.9,2119.7 430.6,2076.7 448.9,2047.8 607.4,2086.1 			"/>
			<polygon class="st7" points="1047.2,1957.6 886.9,1914.6 905.2,1885.7 1063.7,1924 			"/>
			<g>
				<path class="st4" d="M700.6,2128.5l25.1-55.8l-71.3-23.4c-9.9-3.8-20.9-5.8-32.7-5.5c-48.3,1.3-91.1,40.3-95.6,87
					c-3.5,36.3,17.1,66.5,49,77.6l0,0l77.8,25.6l25.9-57.4C690.5,2163,698.4,2146.4,700.6,2128.5z"/>
				
					<ellipse transform="matrix(0.8028 -0.5963 0.5963 0.8028 -1148.0414 834.5168)" class="st5" cx="687.6" cy="2152.8" rx="91.5" ry="80.5"/>
				
					<ellipse transform="matrix(0.8028 -0.5963 0.5963 0.8028 -1148.0427 834.5187)" class="st6" cx="687.6" cy="2152.8" rx="43.1" ry="37.9"/>
				
					<ellipse transform="matrix(0.8028 -0.5963 0.5963 0.8028 -1144.7158 827.3845)" class="st8" cx="678.5" cy="2144.2" rx="28.9" ry="25.4"/>
			</g>
			<g>
				<path class="st4" d="M1165.3,1936.7l24.3-54l-68.9-22.7c-9.5-3.7-20.2-5.6-31.6-5.3c-46.7,1.3-88.1,38.9-92.5,84.1
					c-3.4,35.1,16.5,64.4,47.4,75.1l0,0l75.3,24.8l25-55.5C1155.5,1970,1163.1,1953.9,1165.3,1936.7z"/>
				
					<ellipse transform="matrix(0.8028 -0.5963 0.5963 0.8028 -941.4574 1073.8591)" class="st5" cx="1152.7" cy="1960.2" rx="88.5" ry="77.8"/>
				
					<ellipse transform="matrix(0.8028 -0.5963 0.5963 0.8028 -941.4546 1073.8524)" class="st6" cx="1152.7" cy="1960.2" rx="41.7" ry="36.6"/>
				<path class="st8" d="M1170.5,1951.1c-1.4,14.3-14.5,26.1-29.2,26.6c-14.7,0.4-25.6-10.8-24.2-25.1c1.4-14.3,14.5-26.1,29.2-26.6
					S1171.9,1936.9,1170.5,1951.1z"/>
			</g>
			<path class="st6" d="M678.5,1991.4c91.5-33.2,483.7-177.7,483.7-177.7s71.2-23.4,89.8-79.6c14.5-43.9,9.5-85.6-13.6-117.1
				c-35.6-19.4-92.3-18.9-113.7,4.8c-24.8,27.4-74.3,50.8-74.3,50.8l-764.5,257.3c0,0,91.5,75.2,156.5,93.7
				C507.4,2042.2,587,2024.5,678.5,1991.4z"/>
			<path class="st9" d="M1253.3,1627.5c-4.3-4-9.4-7.5-15-10.6c23.1,31.5,28.2,73.2,13.6,117.1c-18.6,56.2-89.8,79.6-89.8,79.6
				S770,1958.2,678.5,1991.4c-91.5,33.2-171.1,50.8-236.1,32.3c-65-18.6-156.5-93.7-156.5-93.7s-66.3-36.3-114.5-16.8
				c-14.4,5.8-20.6,12.9-22.3,19.8c29.7-0.3,81,6.3,125.3,46.5c53.2,48.2,107.3,76.6,188.7,103.7c84.4,9.4,139.4-13,139.4-13
				s485-180.4,607.1-235.7C1331.5,1779.1,1285.1,1657.1,1253.3,1627.5z"/>
			<path class="st10" d="M149.1,1932.9c-3.8,16.3,17.4,32.3,17.4,32.3s72.5,49.5,206,96.8c32.7,11.6,63.1,17.9,90.5,21
				c-81.4-27.1-135.5-55.4-188.7-103.7C230.1,1939.3,178.7,1932.6,149.1,1932.9z"/>
		</g>
		<g>
			<path class="st11" d="M1149.2,1706.6c-0.6,5.4-1.9,11.2-4.1,17.2c-25.8,71.2-167.8,40.7-198.6,12.4
				c-30.8-28.3-129.2-66.3-129.2-66.3s-7.4,24.3-0.8,52.6c0,0,2,7.5,39,11.9c37.1,4.4,72.2,41.1,121.4,66.3
				C1025.1,1825.5,1174.9,1820.5,1149.2,1706.6z"/>
			<path class="st12" d="M1145.1,1723.8c2.2-6.1,3.5-11.8,4.1-17.2c1.2-11-0.5-20.6-4.1-29.1c-24.4,71.6-124,40.9-151.8,32.6
				c-20-6-31.4,17.3-36.8,33.2C1000.4,1768.9,1121.5,1789.1,1145.1,1723.8z"/>
			<path class="st13" d="M1079.2,1627.4c0,0-6.2-33.6-49.6-32.3s-59.3,39.8-59.3,39.8s27.3-6.6,36.3,12.8
				c7.1,15.3,25.8,52.6,57,75.9c28.2,1,57.1-5.1,73.5-29.7C1093.8,1668.8,1073.9,1640.8,1079.2,1627.4z"/>
			<path class="st14" d="M1079.2,1627.4c-5.3,13.4,14.6,41.4,57.9,66.6c3.2-4.8,5.9-10.2,8.1-16.4
				C1129.6,1641.3,1079.2,1627.4,1079.2,1627.4z"/>
			<path class="st15" d="M993.3,1710.1c12.9,3.8,41.2,12.5,70.3,13.6c-31.2-23.4-49.9-60.6-57-75.9c-9-19.5-36.3-12.8-36.3-12.8
				s-37.5,3.1-59.3-13.7c-21.9-16.8-52.7-45.6-57-33.2c0,0-1.9,9.7-5.8,18.3c37.9,24,105.6,68.6,140.4,103
				C990.2,1709.4,991.7,1709.6,993.3,1710.1z"/>
			<path class="st14" d="M841.1,1616.8c-8.6,7.1-25.4,34.5-23.8,53.1c0,0,98.3,38,129.2,66.3c2.6,2.4,6,4.8,10,7.1
				c4.9-14.6,15-35.4,32.1-34c-34.9-34.4-102.5-79-140.4-103C846.3,1610.5,844,1614.5,841.1,1616.8z"/>
		</g>
		<g>
			<path class="st11" d="M474.8,1932.8c-70.5-32.4-81.4-140.5-82.3-191.9c-11.7,16.4-20.3,35.7-17.6,55.3
				c7.2,52.4,7.1,196.2,143.7,194.9c81.6-0.8,106.4-28,111.8-78.9C603.1,1947.9,549.7,1967.1,474.8,1932.8z"/>
			<path class="st12" d="M474.8,1932.8c74.8,34.4,128.3,15.1,155.6-20.6c1-9.8,1.3-20.5,1.1-32.1c-52,50.6-134.3,12.1-160.4-13.5
				c-20.6-20.2-40.8-2.4-50.7,9.5C432.8,1900.6,450.2,1921.5,474.8,1932.8z"/>
			<path class="st13" d="M602.7,1780c0,0,10.8-32.2-23.3-52.6c-39-23.3-63.7-18.1-63.7-18.1c6.8,116.3-13.1,158.5-23.9,172.7
				c28.3,17,72.3,31.3,110.1,17C595.9,1864.6,599.6,1811.2,602.7,1780z"/>
			<path class="st15" d="M627.5,1807.8c0.7-13.5,4.5-8.8,2.8-23c-1.8-14.2-27.5-4.9-27.5-4.9c-3.1,31.2-6.8,84.7-0.8,119
				c10.5-3.9,20.5-10,29.6-18.9C631.3,1858.9,629.4,1834.8,627.5,1807.8z"/>
			<path class="st14" d="M461.5,1711.3c11.9-8.5,21-18.6,16.2-27.9c-24.8-55.2-41.2,5.6-41.2,5.6s-24.6,25-43.9,51.9
				c0.6,33.1,5.4,89.9,28,135.2c8.4-10,24.2-24.4,41.3-16.2C444.7,1815.5,453.2,1751.3,461.5,1711.3z"/>
			<path class="st15" d="M515.7,1709.3c-23.3-14.6-31.1-36.5-46.5-38.3c-15.7-1.8-12.8,31.4-12.8,31.4
				c-8.7,35.6-14.7,105.2,5.6,157.4c3.1,1.5,6.2,3.7,9.3,6.7c5,4.9,12,10.2,20.6,15.4C502.6,1867.8,522.4,1825.6,515.7,1709.3z"/>
		</g>
		<g>
			<path class="st16" d="M1081.1,1326.5c-29.2-16.7-72.9-29.9-115.9-39.9c-21.3-5-42.5-9.1-61.6-12.5
				c-16.6,14.3-36.7,24.9-57.1,33.4c-30.6,12.7-62.8,21.6-92.3,36.7c-15,7.7-29.1,16.8-44.1,24.5c-58.1,29.7-126.2,34.5-190.9,26.1
				c0.4,6.1,2.2,11.8,4.7,17.3c2-0.7,4-1.5,5.9-2.4c15.3-7.1,26-5.4,33.6,0.8c-5.6,14.1-12.3,24.9-19.5,33.3
				c0.3,0.4,0.5,0.9,0.8,1.3c16.6,27.7,20.2,61,23.5,93.2c0.7,6.5,1.3,13,1.7,19.6c29.1,8.1,63.2,15,92.1,13.9
				c60.9-2.2,95.3-11.2,99.6-12.4c-1.7-23.4-5.7-54.6-13.3-71c-3-6.5-5.2-12.5-6.4-17.6c-5.3-7.7-9.5-16.1-10.1-25.4
				c-1.4-19.5,12.6-36.2,24.9-51.4c10.4-12.8,20.1-26.1,31.8-37.7c11.6-11.6,25.4-21.6,41.2-26.1c0.7,2.8-1.5,5.5-3.5,7.6
				c-13,13.8-29.7,25.4-40.4,41c-0.5,0.7-1,1.6-0.9,2.5c0.3,1.7,2.7,1.9,4.4,1.6c13.8-2.2,26.7-8,39.9-12.4
				c13.3-4.4,27.6-7.4,41.1-3.8c-0.4,4-4.6,6.3-8.3,7.8c-12.7,5.3-25.5,10.5-38.4,15.4c-3.1,1.2-6.4,2.6-7.8,5.5
				c-3.4,6.9,8,10,12.5,11.2c10.2,2.7,19.3,1.9,29.7,1.3c24.2-1.4,47.7-8.8,72.1-8.6c3.1,0,6.7,0.5,8,3.3c1.4,2.7-0.5,6-2.9,7.8
				c-3.9,2.8-9.3,3.3-13.9,4.3c-2.7,0.6-5.7,1.5-7.1,3.9c-0.6,1-0.7,2.5,0.2,3.2c0.5,0.4,1.2,0.5,1.9,0.6c10,1,19.8-0.6,29.8-0.9
				c10.1-0.3,8.8,6.2,4.4,13.6c-8.6,14.7,9.9,17.1,18.7,24.8c125.5-36.8,130.6-97.1,144-100.1c0.5-0.1,0.9-0.1,1.4-0.2
				C1110.5,1347.4,1098.3,1336.3,1081.1,1326.5z"/>
			<path class="st17" d="M544.8,1445.1c-0.3-0.4-0.5-0.9-0.8-1.3c-2.5,2.9-5.1,5.5-7.7,7.8c0.5,12.3,2.3,27.2,7.8,35.2
				c5.8,8.4,8.1,18.8,8.9,27c-0.8,0.5-1.6,1-2.4,1.6c-10.5,6.4-21,10.1-31,11.6c-1.3,4.9-3.7,8.8-6.6,12c11.3,4.3,32.4,12,57,18.8
				c-0.4-6.5-1-13.1-1.7-19.6C565,1506.1,561.4,1472.8,544.8,1445.1z"/>
			<path class="st18" d="M576.2,1430c-3-7.8-7-14.9-12.7-19.5c-7.5,18.9-17,32.1-27.2,41.2c0.5,12.3,2.3,27.2,7.8,35.2
				c5.8,8.4,8.1,18.8,8.9,27C601.2,1483,583.2,1448,576.2,1430z"/>
			<path class="st19" d="M462.5,1467.8c-0.1,0-0.2-0.1-0.3-0.1C462.3,1467.8,462.4,1467.8,462.5,1467.8z"/>
			<path class="st19" d="M461.8,1467.6c-0.1,0-0.2-0.1-0.3-0.1C461.6,1467.5,461.7,1467.6,461.8,1467.6z"/>
			<path class="st19" d="M465.3,1468.6c0,0-0.1,0-0.1,0C465.2,1468.5,465.3,1468.5,465.3,1468.6z"/>
			<path class="st19" d="M461.2,1467.4c0,0,0.1,0,0.2,0.1C461.3,1467.4,461.2,1467.4,461.2,1467.4z"/>
			<path class="st20" d="M465.2,1468.5c-1.1-0.3-2.1-0.5-2.7-0.7C463.1,1468,464,1468.2,465.2,1468.5z"/>
			<path class="st20" d="M462.2,1467.7c-0.1,0-0.3-0.1-0.4-0.1C461.9,1467.6,462.1,1467.7,462.2,1467.7z"/>
			<path class="st20" d="M465.3,1468.6c5.8,1.4,17.2,3.4,30.8,1.6c0,0,0,0,0,0C482.6,1471.9,471.1,1469.9,465.3,1468.6z"/>
			<path class="st20" d="M461.5,1467.5c0,0-0.1,0-0.1,0C461.4,1467.5,461.5,1467.5,461.5,1467.5z"/>
			<path class="st13" d="M529.9,1409.6c-26.8,12.4-60.4,4.1-60.4,4.1c-1.1,1.8-2.3,3.4-3.5,4.8c-8,9.4-18.3,12.5-23.9,25.3
				c-6.5,14.7,19.2,23.6,19.2,23.6s0.1,0,0.2,0.1c0,0,0.1,0,0.1,0c0.1,0,0.2,0.1,0.3,0.1c0.1,0,0.2,0.1,0.4,0.1
				c0.1,0,0.2,0.1,0.3,0.1c0.7,0.2,1.6,0.4,2.7,0.7c0,0,0.1,0,0.1,0c5.8,1.4,17.2,3.3,30.7,1.5c12.6-1.7,27-6.6,40.2-18.5
				c10.2-9.1,19.7-22.3,27.2-41.2C555.9,1404.3,545.3,1402.6,529.9,1409.6z"/>
			<path class="st21" d="M544.1,1486.9c-5.5-8-7.3-23-7.8-35.2c-13.2,11.8-27.6,16.8-40.2,18.5c-13.5,1.8-25-0.2-30.8-1.6
				c0,0-0.1,0-0.1,0c-1.1-0.3-2.1-0.5-2.7-0.7c-0.1,0-0.2-0.1-0.3-0.1c-0.2,0-0.3-0.1-0.4-0.1c-0.1,0-0.2-0.1-0.3-0.1
				c-0.1,0-0.1,0-0.1,0c-0.1,0-0.2-0.1-0.2-0.1c-11.3,37.3,19.5,65.4,58.3,59.6c10-1.5,20.5-5.2,31-11.6c0.8-0.5,1.6-1,2.4-1.6
				C552.2,1505.7,549.8,1495.3,544.1,1486.9z"/>
			<path class="st22" d="M1127.4,1386.7c-7.1-6.6,1.1-28.8-12.8-27c-0.5,0.1-0.9,0.1-1.4,0.2c-15.9,3.5-20,88.1-228.7,117.9
				c0,0-17.7,7.7-10.9,20.3c6.8,12.7-12.1,22.7,3.8,21.5c15.9-1.2,213.7-15,255.6-108.5C1133,1411.1,1140.4,1398.7,1127.4,1386.7z"
				/>
			<path class="st21" d="M1054.3,1301.6c-18.6-1.8-25.6-4.4-42-23.9c-12.9-15.3-37.3,1.2-47.1,8.9c43,10,86.6,23.2,115.9,39.9
				C1085.9,1310.5,1069.5,1303.1,1054.3,1301.6z"/>
			<path class="st22" d="M760.1,1546.4l1.5,13c0,0-0.2,0.1-0.5,0.1c-4.4,1.2-38.2,10-99.1,12.2c-53.2,1.9-124.2-23.2-149-32.7
				c-5.7-2.2-9-3.5-9-3.5c-9.1-1.2-1.2,5-11.5,11.8c-10.3,6.8-5,15.6-5,15.6c117,82.2,251.1,41.6,270.6,42.7
				c19.5,1.2,18.3-22.1,19.5-39.8C778.7,1548.2,760.1,1546.4,760.1,1546.4z"/>
			<path class="st19" d="M563.5,1410.5c-7.6-6.2-18.2-7.9-33.6-0.8c-1.9,0.9-3.9,1.7-5.9,2.4c5.2,11.1,13.4,21.2,20,31.8
				C551.2,1435.4,557.9,1424.5,563.5,1410.5z"/>
			<path class="st17" d="M452.4,1320.9c0,0-5.9,46.9,13.6,97.7c1.2-1.4,2.4-3,3.5-4.8c0,0,28.9,7.1,54.5-1.8
				c-2.5-5.5-4.3-11.1-4.7-17.3c64.7,8.4,132.8,3.6,190.9-26.1c15-7.6,29.1-16.8,44.1-24.5c29.5-15.1,61.7-24,92.3-36.7
				c20.4-8.5,40.4-19.1,57.1-33.4c-44.1-7.8-77.5-11.5-77.5-11.5S621,1391.7,452.4,1320.9z"/>
			<path class="st17" d="M950.6,1435.2c4.4-7.5,5.7-14-4.4-13.6c-10,0.3-19.8,1.8-29.8,0.9c-0.7-0.1-1.4-0.2-1.9-0.6
				c-0.9-0.7-0.8-2.2-0.2-3.2c1.3-2.4,4.4-3.3,7.1-3.9c4.6-1.1,9.9-1.5,13.9-4.3c2.5-1.8,4.3-5.1,2.9-7.8c-1.4-2.7-5-3.2-8-3.3
				c-24.3-0.2-47.9,7.2-72.1,8.6c-10.4,0.6-19.5,1.4-29.7-1.3c-4.5-1.2-15.9-4.3-12.5-11.2c1.4-2.9,4.8-4.3,7.8-5.5
				c12.9-4.9,25.7-10.1,38.4-15.4c3.7-1.6,7.9-3.8,8.3-7.8c-13.5-3.5-27.8-0.5-41.1,3.8c-13.3,4.4-26.2,10.1-39.9,12.4
				c-1.7,0.3-4,0.1-4.4-1.6c-0.2-0.9,0.3-1.7,0.9-2.5c10.8-15.6,27.4-27.2,40.4-41c2-2.1,4.1-4.8,3.5-7.6
				c-15.8,4.5-29.6,14.5-41.2,26.1c-11.6,11.6-21.4,24.9-31.8,37.7c-12.3,15.2-26.3,31.9-24.9,51.4c0.7,9.2,4.8,17.6,10.1,25.4
				c-3.9-17,4.5-23.2,39.4-0.1c45.4,30.1,103.2,7.1,103.2,7.1c33.1-4.7,61.1-10.8,84.8-17.8C960.5,1452.3,942,1449.9,950.6,1435.2z"
				/>
			<ellipse class="st22" cx="493.7" cy="1445.6" rx="11.8" ry="9.1"/>
		</g>
		<path class="st23" d="M798,861.2c0-0.1,0-0.2,0-0.2l-20.2-9.3c0,0-0.3,5.1-2.2,12.4c-4.7,17.4-19.3,47.4-63.8,50.7
			c-56,4.2-87.1-22.2-100.5-37.8c-5.5-6.4-8-11.1-8-11.1l-18,14.3l-0.5,0.4c0,0,21.5,63.7,118.8,59
			C797.7,934.9,798.1,865.6,798,861.2z"/>
		<path class="st24" d="M771.2,1266.5c-3.4,0.4-6.9,0.5-10-0.9c-8.1-3.8-7.8-16.1-2.7-23.6c5.1-7.4,13.2-12.4,18.4-19.7
			c5.2-7.3,6-19.5-2-23.7c-3-1.6-6.7-1.6-10.1-1.6c-32.6,0.7-65.1,7.3-95.5,19.4c-25.8,10.3-52,24.8-79.5,21
			c-11.6-1.6-23.4-7.2-29.3-17.3c-7.3-12.8-3.6-29,2.3-42.5c9.4-21.4,23.9-40.5,31.6-62.6s7.2-49.7-10.1-65.5
			c-12.2-11.1-29.8-13.9-46.3-14.5c-24.4-1-48.8,1.4-73,4.8c-5,0.7-10.4,0.8-15.9,1c5.3,15.4,8.7,31.8,9,48.8c0,0,61-14.7,61-0.6
			s-34.5,111.4-50.4,136.2c-15.9,24.8-39.8,102.6-38.9,124.7c0,0,97.3,44.2,154.8,36.3c57.5-8,98.2-25.6,160.1-59.2
			c61.9-33.6,102.6-52.2,124.7-50.4c0,0-10.7-16.5-19.1-38.7c-11,2.2-21.6,6.7-31.8,11.5C803.3,1256.5,788,1264.5,771.2,1266.5z"/>
		<path class="st25" d="M805.3,1122.9c-1.9-0.8-3.9-1.8-5.2-3.4c-2.6-3.2-1.7-7.9-1-12c0.9-5.9,0.9-12,0.1-17.9
			c-0.3-2.3-0.9-4.9-2.8-6.3c-1.6-1.3-3.9-1.4-5.9-1.3c-9,0.2-18.2,2.4-26.9,0.2c-8.7-2.2-16.7-11.6-13-19.8c1.6-3.6,4.9-6,8.1-8.3
			c29.3-20.4,60.8-38.7,84.6-65.4c15.8-17.7,29-39.7,51-48.7c8.7-3.6,18.1-4.8,27.4-5.7c18.4-1.8,37.2-2.3,55.5,0
			c1.8-28.5,1.5-65.7-9.4-86.7c0,0-130.4,6.7-169.6,13.6c0.1,4.4-0.3,73.8-94.5,78.3c-97.3,4.7-118.8-59-118.8-59l0.5-0.4
			c-40.9,5.6-79.1,13.4-105.2,24.9l-93.4,43.3c17.8,14.8,47.8,49.4,62.7,92.4c5.5-0.2,10.9-0.4,15.9-1c24.2-3.3,48.6-5.8,73-4.8
			c16.5,0.7,34.1,3.4,46.3,14.5c17.3,15.8,17.9,43.4,10.1,65.5s-22.2,41.2-31.6,62.6c-5.9,13.5-9.7,29.7-2.3,42.5
			c5.9,10.2,17.6,15.7,29.3,17.3c27.5,3.8,53.7-10.7,79.5-21c30.3-12.1,62.8-18.7,95.5-19.4c3.5-0.1,7.1,0,10.1,1.6
			c7.9,4.2,7.2,16.4,2,23.7c-5.2,7.3-13.3,12.3-18.4,19.7c-5.1,7.4-5.4,19.7,2.7,23.6c3.1,1.4,6.6,1.3,10,0.9
			c16.8-2,32.1-10.1,47.3-17.3c10.2-4.8,20.8-9.3,31.8-11.5c-7.3-19.1-12.8-42.5-8.3-63c2.7-12.3,5.8-28.5,9.4-45.7
			C835.7,1130.6,819.9,1129,805.3,1122.9z"/>
		<path class="st24" d="M888.9,1020.9c22.1-16.8,66.3-38,84-47.8c0,0,2.7-16.8,4.1-38.9c-18.2-2.4-37.1-1.8-55.5,0
			c-9.3,0.9-18.8,2.1-27.4,5.7c-22,9-35.2,31-51,48.7c-23.8,26.7-55.3,45-84.6,65.4c-3.2,2.2-6.6,4.7-8.1,8.3
			c-3.6,8.2,4.3,17.6,13,19.8c8.7,2.2,17.9,0,26.9-0.2c2.1,0,4.3,0.1,5.9,1.3c1.9,1.4,2.5,4,2.8,6.3c0.9,5.9,0.8,12-0.1,17.9
			c-0.6,4.1-1.5,8.7,1,12c1.3,1.6,3.3,2.6,5.2,3.4c14.6,6.2,30.4,7.7,46.2,6.2C860.7,1084.6,873,1033,888.9,1020.9z"/>
		<g>
			<path class="st26" d="M523.4,189.3c0,0,25.9-10,137.7,12c0,0-72.3,354.6-154.3,398.5C506.8,599.9,313.9,427.4,523.4,189.3z"/>
			<path class="st1" d="M1002.6,434.3c3.1-9.8,0.2-41.1,1.4-50.2c-7.4-45.6-20-72.1-40-87c-46-34.1-234.3-188.4-433.9-59.5
				c-10.9,17.3-44.7,22.6-57,96c0,0-4.9,63.2-31.2,164.9c-8.7,15-26.2,18.2-42.6,60c-9.2,32.2-10.8,63.4,7,119.8
				c20.3,57.9,74,126.4,187.1,164.1c11.1,3.7,43.9,10.8,56,12.4c114.2,15.7,185.9-10.8,230.8-51.7c-0.5,1.6-1,2.9-1.2,3.8
				c-3.1,12.1,9.6,23,36.9,23.6c27.4,0.6,43.3-16.8,43.3-16.8c82.4-74.7,40.8-105,21.9-110.9c-18.9-5.9-45.3,16.6-45.3,16.6
				c-0.1,0-0.2,0-0.3,0.1c19.9-52.7,19.1-101.9,19.9-111C957.2,585.7,1002.6,434.3,1002.6,434.3z"/>
			<g>
				<path class="st27" d="M723.3,510.3c18.4-14.3,40.8-22.2,61.6-17.4c53.3,12.3,69.7,57,66,97c-0.6,6.1-1.6,12.1-3,17.8
					c0,0-13.9,54.4-116.6,23.9C659.6,610.3,680.7,543.3,723.3,510.3z"/>
				<path class="st28" d="M784.9,492.8c-20.7-4.8-43.1,3.2-61.6,17.4l-0.4-0.3c0,0,18.3-42.5,63.8-44.6c0,0-18.6,8.3-23.6,14.8
					c0,0,25.6-15.7,64.4-0.4c0,0-16.8-3-28.8,1.9c0,0,31.5-2.2,61.7,34.5c0,0-10-7.3-24.2-10.1c0,0,45.8,29.4,14.8,83.9l-0.2-0.1
					C854.6,549.9,838.2,505.1,784.9,492.8z"/>
			</g>
			<g>
				<path class="st27" d="M609,487.9c-9.7-18.8-25.4-34.2-44.8-38.5c-49.9-11.3-81.9,18.3-95,52c-2,5.1-3.6,10.4-4.7,15.6
					c0,0-10.4,49.4,88.5,65.6C622.1,593.9,631.5,531.5,609,487.9z"/>
				<path class="st28" d="M564.2,449.3c19.4,4.4,35,19.7,44.8,38.5l0.4,0c0,0,1.8-41.6-35.6-61.4c0,0,12.2,14.1,13.9,21.3
					c0,0-15.2-22.8-54.1-25.9c0,0,15.4,4.3,23.4,13c0,0-25.7-14.3-66,3.3c0,0,11.4-1.9,24.5,1.5c0,0-50.5,5.6-46.5,61.8l0.2,0
					C482.4,467.7,514.3,438.1,564.2,449.3z"/>
			</g>
			<g>
				<g>
					
						<ellipse transform="matrix(0.8559 -0.5171 0.5171 0.8559 -186.4536 466.9522)" class="st29" cx="744.7" cy="568" rx="42.7" ry="42.7"/>
					
						<ellipse transform="matrix(0.5288 -0.8487 0.8487 0.5288 -129.0561 899.0814)" class="st30" cx="745.2" cy="565.8" rx="21.3" ry="21.3"/>
				</g>
				
					<ellipse transform="matrix(0.9667 -0.2558 0.2558 0.9667 -116.4117 213.9924)" class="st27" cx="764.6" cy="554.6" rx="8.8" ry="8.8"/>
			</g>
			<g>
				<g>
					
						<ellipse transform="matrix(0.1072 -0.9942 0.9942 0.1072 -53.7182 986.9688)" class="st29" cx="522.7" cy="523.4" rx="42" ry="43.7"/>
					
						<ellipse transform="matrix(0.1072 -0.9942 0.9942 0.1072 -53.3797 984.9766)" class="st30" cx="521.8" cy="522.2" rx="20.9" ry="21.7"/>
				</g>
				<path class="st27" d="M532.7,511.2c-1.1,4.6,1.9,9.3,6.8,10.4c4.8,1.1,9.6-1.8,10.7-6.4c1.1-4.6-1.9-9.3-6.8-10.4
					C538.5,503.7,533.7,506.6,532.7,511.2z"/>
			</g>
			
				<ellipse transform="matrix(0.1226 -0.9925 0.9925 0.1226 42.4689 1319.7391)" class="st1" cx="767.6" cy="635.9" rx="37.6" ry="86.7"/>
			
				<ellipse transform="matrix(0.1215 -0.9926 0.9926 0.1215 -115.72 1048.9149)" class="st1" cx="534.7" cy="589.8" rx="35" ry="75.5"/>
			<path class="st28" d="M864,484.7c0,0-27.7-40.3-85.9-51c0,0,17-22.2,40.7-13.8C856,433.1,869.8,460.4,864,484.7z"/>
			<path class="st28" d="M507.5,378.9c0,0,41-26.7,98.9-14.3c0,0-7.3-27-32.3-28.3C534.6,334.3,511.5,354.2,507.5,378.9z"/>
			
				<radialGradient id="SVGID_1_" cx="50.4347" cy="792.0555" r="71.0066" gradientTransform="matrix(-0.9915 -0.1301 -0.1301 0.9915 996.4026 -68.0105)" gradientUnits="userSpaceOnUse">
				<stop  offset="0" style="stop-color:#FEC2B1"/>
				<stop  offset="1" style="stop-color:#FFD0B2"/>
			</radialGradient>
			<circle class="st31" cx="843.4" cy="710.8" r="71"/>
			
				<radialGradient id="SVGID_2_" cx="394.0594" cy="765.886" r="71.0066" gradientTransform="matrix(-0.9915 -0.1301 -0.1301 0.9915 996.4026 -68.0105)" gradientUnits="userSpaceOnUse">
				<stop  offset="0" style="stop-color:#FEC2B1"/>
				<stop  offset="1" style="stop-color:#FFD0B2"/>
			</radialGradient>
			<circle class="st32" cx="506.1" cy="640.1" r="71"/>
			<g>
				<path class="st33" d="M586.1,760.4c-37.2-28.9-53.1-84-53.1-84s19.1,12.8,53.8,21.1c15.6,26.4,38.6,25.8,66.5,27.4
					c20.1,1.1,34.3-14.2,42-25.4c36.8-5.6,67.2-14.2,67.2-14.2c-19.6,26.5-32,48.1-47.9,63.8C688.4,744.9,637.5,741.2,586.1,760.4z"
					/>
				<path class="st27" d="M653.4,724.9c-27.9-1.6-51-1-66.5-27.4c10.8,2.6,23,4.7,36.7,5.9c22.5,1.9,48.5-0.4,71.9-3.9
					C687.8,710.7,673.5,726,653.4,724.9z"/>
				<path class="st34" d="M637.8,777.6c-20.5,0.9-37.6-6.3-51.6-17.3c51.4-19.2,102.3-15.5,128.7-11.3
					C697.7,765.9,676.5,775.9,637.8,777.6z"/>
			</g>
			<g>
				<path class="st2" d="M673.7,616.8c-9.7-14.2-37.7-46.1-71.3-6.1c-2,2.4-0.4,6.2,2.7,6.4l13.3-3.7c11.5-3.2,23.8-2.6,35,1.9
					l17.2,6.9C673.5,622.4,675.3,619.2,673.7,616.8z"/>
			</g>
			<path class="st2" d="M949.6,746.8c7.3-4.3,15.8-7.9,24.1-6.2c2.5,0.5,5.1,1.6,6.4,3.8c1.3,2.2,1.2,4.9,1,7.4
				c-0.2,3.4-0.5,6.9-1.8,10.1c-1.3,3.2-3.8,6-7.1,6.9c-5.9,1.5-12.8-3.5-17.7,0c-2.8,2-3.4,5.9-4.3,9.3
				c-3.6,13-35.9,35.2-39.6,12.4c-1.6-9.6,6.9-16.1,12.8-22.4C931.2,759.8,939.9,752.6,949.6,746.8z"/>
			<path class="st35" d="M1124.2,406.6c0,0,29.1,1.3,48.2,17.8c0,0-0.1-32.3-47.8-55.3c0,0,24.6-56.3-25.1-97c0,0-3.4,30.7-15,56.9
				c-36.9-148.2-221.4-239.4-306.8-252C677.9,62.2,685.3,0,685.3,0c-68,60.2-51.8,110.5-51.8,110.5c-272.7-14.6-217.6,232-217.6,232
				c9.2-8.3,31.4-45.6,41.1-52.3c-4.1,15.8-11.2,61.2-2.7,97.2c0,0,29.7-76.9,92.8-114c-21.8,29.5-19.5,60.1-1.2,84.9
				c0,0,25.9-70.7,92-85.5c0,0,13.9,95.5,96.7,113.1c0,0-24.7-66-14.5-109.1c0,0,18.7,97.3,97.4,130.8c0,0-22.7-69.9-10.7-97.3
				c0,0,31.3,141.4,164.4,150.3c0.3,0.9,0.7,1.9,1,2.8c-8,29.9-21,81.5-25.9,116.5c-14.1,102-44.2,160.4-44.2,160.4
				s172.5-57.7,207.2-267.1c5-18.4,5.1-31.5,2.8-40.8c17.8,4.5,38.5,13.3,53.7,30.7C1165.7,463,1163.6,428.4,1124.2,406.6z"/>
			<path class="st36" d="M426.3,305.2c0,0,27.1-225.8,262.3-165.7c0,0-49.5-46-18.9-101.4c0,0,51.3,60.7,148.6,80.8
				c97.3,20,202.8,92.6,240.5,211c0,0-48.3-100.8-163.3-153.9c-115-53.1-169.8-47.2-208.1-93.7c0,0,15.9,54.2,45.4,76
				C732.8,158.4,516.5,94.7,426.3,305.2z"/>
			<path class="st36" d="M1004.6,453.2c0,0-168-113.2-195.7-236.4c0,0-81.4,92.6-7.1,169.2c0,0-32.5-48,17.1-109.7
				C835.9,339.6,881.7,433.3,1004.6,453.2z"/>
			<path class="st36" d="M465.8,325.8c0,0,36-174.5,280-125c0,0-84.3,65.4-24.8,171c0,0-83.1-67.2-39.5-150.3
				C681.5,221.5,574.8,193.8,465.8,325.8z"/>
			<path class="st36" d="M1017.6,342.3c0,0,84.9,160.9-68.4,331.9C949.2,674.2,1168.5,530.4,1017.6,342.3z"/>
		</g>
	</g>
</g>
</svg>
