<?xml version="1.0" encoding="utf-8"?>
<!-- Generator: Adobe Illustrator 24.0.1, SVG Export Plug-In . SVG Version: 6.00 Build 0)  -->
<svg version="1.1" id="Layer_1" xmlns="http://www.w3.org/2000/svg" xmlns:xlink="http://www.w3.org/1999/xlink" x="0px" y="0px"
	 viewBox="0 0 181.5 181.5" style="enable-background:new 0 0 181.5 181.5;" xml:space="preserve">
<path d="M28.5,110.7H15.4V97.7V84.6h6.9h6.9v-7.7v-7.7h-0.8h-0.8v6.9v6.9h-6.9h-6.9v27.7v27.7H7.7H1.5v-33.8V70.8h6.9h6.9v-6.9v-6.9
	h13.8h13.8v-0.8v-0.8H29.2H15.4v-6.9v-6.9h-0.8h-0.8v13.8v13.8H7.7H1.5v-20v-20h6.9h6.9v-0.8v-0.8H8.5H1.5V14.6V1.5h6.9h21.2V0.8V0
	h-22H0v90.8v90.8h0.8h0.8v-20.8V140h6.9h6.9v-13.8v-13.8h13L28.5,110.7z M41.6,112.3h13.8v6.2v6.2H41.5H27.7v0.8v0.8h14.6h14.6v-6.9
	v-6.9H70h13.1v6.9v6.9H90h6.9v13.1v13.1H90h-6.9v0.8v0.8H90h6.9v6.2v6.2H83.8H70.8V153V140h6.9h6.9v-0.8v-0.8h-6.9h-6.9v-6.9v-6.9
	H70h-0.8v6.9v6.9H48.5H27.7v6.9v6.9h-6.9h-6.9v0.8v0.8h21.5h21.5V153v-0.8H43.1H29.2v-6.2V140h20h20V153v13.1H41.5H13.8v0.8v0.8
	h42.3h42.3v-13.8V140h13.1h13.1v6.2v6.2h-6.9h-6.9v0.8v0.8h13.8h13.8v6.9v6.9H153h14.6v-35.4V96.9h-6.9h-6.9V90v-6.9h-6.9H140v-6.9
	v-6.9h-0.8h-0.8v7.7v7.7h6.9h6.9v6.9v6.9h6.9h6.9v33.8v33.8H153H140V160v-6.2h6.9h6.9v-7.7v-7.7H153h-0.8v6.9v6.9h-13.1h-13.1v-13.1
	v-13.1h6.2h6.2v6.9v6.9h0.8h0.8v-6.9v-6.9h6.9h6.9v-7.7v-7.7H153h-0.8v6.9v6.9h-13.8h-13.8v6.9v6.9h-13.1H98.4v-6.9v-6.9h-6.9h-6.9
	v-13.8V96.9H70H55.4v0.8v0.8h13.8h13.8v6.2v6.2h-20h-20V97.7V84.6h13.8h13.8V49.2V13.8H56.1H41.5v0.8v0.8h6.9h6.9v6.9v6.9h0.8h0.8
	v-6.9v-6.9h6.2h6.2v33.8v33.8H56.1H43.1v-6.2v-6.2H50h6.9V56.1V41.5H50h-6.9v-6.9v-6.9h-0.8h-0.8v6.9v6.9h-6.2h-6.2V27.7V13.8h-7.7
	h-7.7v0.8v0.8h6.9h6.9v13.8v13.8h13.8h13.8v13.1v13.1h-6.9h-6.9v13.8v13.8h-6.9h-6.9v0.8v0.8h6.9h6.9v6.2v6.2L41.6,112.3z M27.7,0.8
	v0.8h27.7h27.7v6.9v6.9h7.7h7.7v-0.8v-0.8h-6.9h-6.9V7.7V1.5h26.9h26.9v13.1v13.1h-13.1h-13.1v-6.2v-6.2h6.9h6.9v-0.8v-0.8h-7.7
	h-7.7v6.9v6.9H96.9H83.1v14.6v14.6h0.8h0.8V43.1V29.2h26.9h26.9v6.9v6.9h0.8h0.8v-6.9v-6.9h6.9h6.9v-0.8v-0.8h-6.9H140V14.6V1.5h20
	h20v26.9v26.9h-6.2h-6.2V34.6V13.8H160h-7.7v0.8v0.8h6.9h6.9v13.1v13.1h-6.9h-6.9v0.8v0.8h6.9h6.9V50v6.9h6.9h6.9V70v13.1h-6.2h-6.2
	v-6.9v-6.9h-6.9h-6.9v-6.9v-6.9H140h-13.8v-6.9v-6.9h-14.6H96.9v0.8v0.8h6.9h6.9v27.7v27.7h0.8h0.8V70.8V43.1h6.2h6.2v27.7v27.7h6.9
	h6.9v6.2v6.2h-20h-20V83.1V55.4h-0.8h-0.8v6.9v6.9H90h-6.9V70v0.8H90h6.9v6.2v6.2H90h-6.9v0.8v0.8H90h6.9v13.8v13.8h6.9h6.9v6.9v6.9
	h0.8h0.8v-6.9v-6.9h13.8H140v-7.7v-7.7h-6.9h-6.9v-20v-20h13.1h13.1v6.9v6.9h6.9h6.9v6.9v6.9h6.9h6.9v47.7V180H153h-26.9V173v-6.9
	h-0.8h-0.8v6.9v6.9h-6.2h-6.2V173v-6.9h-0.8h-0.8v6.9v6.9H62.3h-62v0.8v0.8h97.4h83.8V90.8V0h-76.9H27.7V0.8z"/>
</svg>
